# xmcd
#
# Track frame offsets:
#	150
#	20222
#	37392
#	64513
#	80485
#	97889
#	117045
#	130504
#	153028
#	172344
#	191740
#	211247
#	234631
#	251558
#
# Disc length: 3551 seconds
#
# Revision: 1
# Processed by: cddbd v1.5.1PL0 Copyright (c) Steve Scherf et al.
# Submitted via: audiograbber 1.81.03
#
DISCID=bc0ddd0e
DTITLE=Kate Pereira Band - Under Cover
DYEAR=2004
DGENRE=Blues
TTITLE0=I believe I'm in love with you
TTITLE1=Torn down
TTITLE2=Full time lover
TTITLE3=Why get up
TTITLE4=Thing called love
TTITLE5=Love me like a man
TTITLE6=Papa come quick
TTITLE7=Kokomo blues
TTITLE8=Roads my middle name
TTITLE9=Love to burn
TTITLE10=Angel from montgomery
TTITLE11=Love is a train
TTITLE12=Bring me some water
TTITLE13=Nobody's girl
EXTD=
EXTT0=
EXTT1=
EXTT2=
EXTT3=
EXTT4=
EXTT5=
EXTT6=
EXTT7=
EXTT8=
EXTT9=
EXTT10=
EXTT11=
EXTT12=
EXTT13=
PLAYORDER=
